<svg xmlns="http://www.w3.org/2000/svg" aria-hidden="true" style="position:absolute;width:0;height:0;overflow:hidden"><defs><symbol id="icon-12" viewBox="0 0 32 32"><path stroke-linecap="round" stroke-width="2.667" d="M6.667 6.667h18.667M6.667 16h18.667M6.667 25.333h18.667"/></symbol><symbol id="icon-Add" viewBox="0 0 32 32"><path d="M15.845 4.009 16 4c.684 0 1.247.515 1.324 1.178l.009.155v9.333h9.333c.684 0 1.247.515 1.324 1.178l.009.155c0 .684-.515 1.247-1.178 1.324l-.155.009h-9.333v9.333c0 .684-.515 1.247-1.178 1.324l-.155.009a1.333 1.333 0 0 1-1.324-1.178l-.009-.155v-9.333H5.334a1.333 1.333 0 0 1-1.324-1.178l-.009-.155c0-.684.515-1.247 1.178-1.324l.155-.009h9.333V5.333c0-.684.515-1.247 1.178-1.324z"/></symbol><symbol id="icon-Caret" viewBox="0 0 30 32"><path d="M10.039 23.402c0 1.348 1.587 2.068 2.602 1.181l7.919-6.929c1-.875 1-2.43 0-3.305L12.641 7.42c-1.014-.887-2.602-.167-2.602 1.181v14.803z"/></symbol><symbol id="icon-Chevron" viewBox="0 0 32 32"><path d="M11.293 5.626a.999.999 0 0 0 0 1.414l8.96 8.96-8.96 8.96a.999.999 0 1 0 1.414 1.414l9.667-9.667a.999.999 0 0 0 0-1.414l-9.667-9.667a.999.999 0 0 0-1.414 0z"/></symbol><symbol id="icon-Dismiss" viewBox="0 0 32 32"><path d="m5.863 6.072.097-.112a1 1 0 0 1 1.302-.097l.112.097L16 14.586l8.626-8.626a.999.999 0 1 1 1.414 1.414L17.414 16l8.626 8.626a1 1 0 0 1 .097 1.302l-.097.112a1 1 0 0 1-1.302.097l-.112-.097L16 17.414 7.374 26.04a.999.999 0 1 1-1.414-1.414L14.586 16 5.96 7.374a1 1 0 0 1-.097-1.302z"/></symbol><symbol id="icon-Menu" viewBox="0 0 171 32"><path d="M12.072 8.701c-.109-1.066-.425-1.862-.947-2.389-.51-.539-1.214-.809-2.112-.809-.85 0-1.548.276-2.094.828-.534.552-.801 1.26-.801 2.126 0 .903.273 1.605.819 2.107.534.489 1.578 1.01 3.132 1.561 2.841 1.003 4.862 2.188 6.063 3.556s1.803 3.173 1.803 5.418c0 2.671-.838 4.86-2.513 6.566s-3.824 2.558-6.446 2.558c-2.476 0-4.546-.803-6.209-2.408-1.651-1.605-2.573-3.7-2.768-6.283h5.353c.134 1.229.516 2.17 1.147 2.822.643.64 1.505.959 2.586.959 1.117 0 2.027-.332 2.731-.997.716-.665 1.074-1.524 1.074-2.577 0-1.154-.346-2.057-1.038-2.709-.68-.64-2.015-1.311-4.006-2.013-2.452-.865-4.194-1.925-5.226-3.179S1.072 10.91 1.072 8.815c0-2.408.759-4.377 2.276-5.907C4.865 1.365 6.814.594 9.193.594c2.197 0 4.073.778 5.626 2.333 1.554 1.543 2.385 3.468 2.495 5.775H12.07zM24.308 29.658V6.067h-5.135v-4.91h15.368v4.91h-5.135v23.591h-5.098zM56.428 18.991c0 3.599-.856 6.371-2.567 8.315-1.699 1.944-4.133 2.916-7.302 2.916-3.156 0-5.596-.972-7.32-2.916-1.712-1.944-2.567-4.716-2.567-8.315V1.157h5.098v18.079c0 2.032.394 3.556 1.184 4.571.801 1.003 2.003 1.505 3.605 1.505 1.59 0 2.78-.502 3.569-1.505.801-1.016 1.202-2.54 1.202-4.571V1.157h5.098v17.834zM60.852 29.658V1.157h6.282c4.941 0 8.819 1.248 11.635 3.744 2.828 2.483 4.243 5.895 4.243 10.234 0 4.515-1.36 8.064-4.079 10.648s-6.452 3.875-11.198 3.875h-6.883zm5.099-4.91h1.784c3.241 0 5.742-.809 7.502-2.427 1.772-1.63 2.658-3.932 2.658-6.904 0-2.985-.935-5.286-2.804-6.904-1.869-1.63-4.522-2.446-7.957-2.446H65.95v18.681zM87.291 29.658V1.157h5.098v28.501h-5.098zM102.768 29.658H97.67V1.157h5.863l11.471 20.825V1.157h5.098v28.501h-5.626L102.768 8.663v20.995zM124.946 29.658V1.157h14.056v4.91h-8.958v7.017h8.521v4.91h-8.521v11.664h-5.099zM156.245 30.222c-3.993 0-7.398-1.442-10.215-4.327-2.803-2.885-4.205-6.377-4.205-10.479 0-4.114 1.402-7.613 4.205-10.497 2.817-2.885 6.222-4.327 10.215-4.327 4.006 0 7.411 1.442 10.215 4.327s4.206 6.384 4.206 10.497c0 4.101-1.402 7.594-4.206 10.479s-6.209 4.327-10.215 4.327zm0-4.91c2.598 0 4.795-.959 6.592-2.878 1.809-1.919 2.713-4.258 2.713-7.017 0-2.772-.904-5.117-2.713-7.036-1.797-1.919-3.994-2.878-6.592-2.878s-4.8.959-6.61 2.878c-1.796 1.919-2.694 4.264-2.694 7.036 0 2.759.898 5.098 2.694 7.017 1.81 1.919 4.012 2.878 6.61 2.878z"/></symbol><symbol id="icon-Minus" viewBox="0 0 32 32"><path d="M17.333 14.667h9.333c.684 0 1.247.515 1.324 1.178l.009.155c0 .684-.515 1.247-1.178 1.324l-.155.009H5.333a1.333 1.333 0 0 1-1.324-1.178L4 16c0-.684.515-1.247 1.178-1.324l.155-.009h12z"/></symbol><symbol id="icon-Social-1" viewBox="0 0 32 32"><path d="M29.638 0H2.362A2.36 2.36 0 0 0 0 2.362v27.276A2.36 2.36 0 0 0 2.362 32h27.276A2.36 2.36 0 0 0 32 29.638V2.362A2.36 2.36 0 0 0 29.638 0zm-20.1 27.26H4.727V11.978h4.811V27.26zM7.129 9.86a2.768 2.768 0 0 1-2.541-1.716 2.763 2.763 0 1 1 5.319-1.043A2.723 2.723 0 0 1 7.129 9.86zm20.142 17.413h-4.809v-8.349c0-2.462-1.047-3.222-2.398-3.222-1.427 0-2.827 1.076-2.827 3.285v8.287h-4.811V11.99h4.627v2.118h.062c.464-.94 2.091-2.547 4.573-2.547 2.684 0 5.584 1.593 5.584 6.26l-.002 9.453z"/></symbol><symbol id="icon-Social" viewBox="0 0 32 32"><path d="M16 32c8.837 0 16-7.163 16-16S24.837 0 16 0 0 7.163 0 16s7.163 16 16 16z"/><path d="M7.243 15.831c4.664-2.032 7.775-3.372 9.331-4.019 4.443-1.848 5.367-2.169 5.968-2.18.132-.002.428.03.62.186.162.131.206.309.228.433s.048.408.027.63c-.241 2.53-1.283 8.669-1.813 11.503-.224 1.199-.666 1.601-1.093 1.64-.929.085-1.635-.614-2.535-1.204-1.408-.923-2.204-1.498-3.571-2.398-1.58-1.041-.556-1.613.345-2.548.236-.245 4.329-3.968 4.409-4.306.01-.042.019-.2-.074-.283s-.232-.055-.331-.032c-.141.032-2.391 1.519-6.749 4.461-.639.439-1.217.652-1.735.641-.571-.012-1.67-.323-2.487-.589-1.002-.326-1.798-.498-1.729-1.051.036-.288.433-.583 1.19-.884z"/></symbol><symbol id="icon-Vector" viewBox="0 0 32 32"><path d="M24.527 9.363a1.92 1.92 0 1 1-.007-3.84 1.92 1.92 0 0 1 .007 3.84zM16.015 24.215a8.215 8.215 0 1 1 8.2-8.23 8.216 8.216 0 0 1-8.201 8.231zm-.026-13.548a5.334 5.334 0 1 0 .024 10.666 5.334 5.334 0 0 0-.025-10.665z"/><path d="M5.492.862C6.508.464 7.671.191 9.373.111 11.08.029 11.624.01 15.969.002s4.89.008 6.597.084c1.703.074 2.866.342 3.884.736a7.838 7.838 0 0 1 2.838 1.839 7.847 7.847 0 0 1 1.85 2.83c.398 1.017.67 2.179.751 3.882.081 1.706.101 2.25.109 6.595s-.009 4.89-.084 6.597c-.074 1.702-.342 2.866-.736 3.883-.407 1.053-.952 1.947-1.839 2.838s-1.779 1.439-2.83 1.851c-1.017.397-2.179.67-3.881.751-1.707.081-2.251.1-6.597.108-4.344.008-4.889-.008-6.595-.084-1.703-.075-2.867-.343-3.884-.736-1.053-.407-1.947-.952-2.838-1.84s-1.44-1.779-1.851-2.831c-.398-1.017-.67-2.179-.751-3.881-.081-1.707-.101-2.253-.109-6.597s.009-4.889.083-6.596c.075-1.703.342-2.867.736-3.885a7.838 7.838 0 0 1 1.84-2.837 7.826 7.826 0 0 1 2.83-1.85zm1.097 27.629c.565.217 1.412.476 2.971.544 1.688.073 2.193.089 6.464.081 4.273-.008 4.778-.026 6.465-.105 1.558-.074 2.405-.337 2.968-.556a4.983 4.983 0 0 0 1.838-1.2 4.962 4.962 0 0 0 1.194-1.842c.218-.565.476-1.413.544-2.973.074-1.687.09-2.193.081-6.465-.008-4.271-.026-4.777-.106-6.465-.074-1.559-.335-2.406-.556-2.968-.292-.748-.64-1.279-1.201-1.838s-1.094-.904-1.842-1.193c-.564-.218-1.412-.476-2.97-.544-1.688-.074-2.194-.089-6.466-.081-4.271.008-4.777.025-6.464.105-1.559.074-2.405.336-2.969.556a4.966 4.966 0 0 0-1.838 1.2 4.964 4.964 0 0 0-1.193 1.842c-.217.564-.477 1.412-.544 2.971-.074 1.688-.089 2.194-.081 6.465s.026 4.778.105 6.465c.073 1.56.337 2.406.556 2.971.292.746.64 1.278 1.2 1.837a4.985 4.985 0 0 0 1.842 1.193z"/></symbol></defs></svg>