    <svg aria-hidden="true" style="position: absolute; width: 0; height: 0; overflow: hidden;" version="1.1" xmlns="http://www.w3.org/2000/svg" xmlns:xlink="http://www.w3.org/1999/xlink">
<defs>
<symbol id="icon-inst" viewBox="0 0 32 32">
<path d="M24.527 9.363c-1.060 0.002-1.921-0.856-1.923-1.916s0.856-1.921 1.916-1.923 1.922 0.856 1.924 1.916c0.002 1.060-0.857 1.921-1.917 1.923z"></path>
<path d="M16.015 24.215c-4.537 0.009-8.222-3.662-8.231-8.199-0.009-4.537 3.662-8.222 8.199-8.231s8.223 3.664 8.232 8.2c0.009 4.538-3.664 8.222-8.201 8.231zM15.989 10.667c-2.944 0.005-5.328 2.398-5.323 5.343s2.399 5.329 5.343 5.323c2.946-0.006 5.329-2.398 5.323-5.343s-2.399-5.328-5.344-5.322z"></path>
<path d="M5.492 0.862c1.016-0.398 2.179-0.671 3.881-0.751 1.707-0.082 2.251-0.101 6.596-0.109s4.89 0.008 6.597 0.084c1.703 0.074 2.866 0.342 3.884 0.736 1.053 0.406 1.947 0.952 2.838 1.839 0.891 0.888 1.439 1.779 1.85 2.83 0.398 1.017 0.67 2.179 0.751 3.882 0.081 1.706 0.101 2.25 0.109 6.595s-0.009 4.89-0.084 6.597c-0.074 1.702-0.342 2.866-0.736 3.883-0.407 1.053-0.952 1.947-1.839 2.838s-1.779 1.439-2.83 1.851c-1.017 0.397-2.179 0.67-3.881 0.751-1.707 0.081-2.251 0.1-6.597 0.108-4.344 0.008-4.889-0.008-6.595-0.084-1.703-0.075-2.867-0.343-3.884-0.736-1.053-0.407-1.947-0.952-2.838-1.84s-1.44-1.779-1.851-2.831c-0.398-1.017-0.67-2.179-0.751-3.881-0.081-1.707-0.101-2.253-0.109-6.597s0.009-4.889 0.083-6.596c0.075-1.703 0.342-2.867 0.736-3.885 0.407-1.053 0.952-1.946 1.84-2.837 0.887-0.891 1.779-1.44 2.83-1.85zM6.589 28.491c0.565 0.217 1.412 0.476 2.971 0.544 1.688 0.073 2.193 0.089 6.464 0.081 4.273-0.008 4.778-0.026 6.465-0.105 1.558-0.074 2.405-0.337 2.968-0.556 0.747-0.292 1.279-0.641 1.838-1.2 0.559-0.561 0.905-1.095 1.194-1.842 0.218-0.565 0.476-1.413 0.544-2.973 0.074-1.687 0.090-2.193 0.081-6.465-0.008-4.271-0.026-4.777-0.106-6.465-0.074-1.559-0.335-2.406-0.556-2.968-0.292-0.748-0.64-1.279-1.201-1.838s-1.094-0.904-1.842-1.193c-0.564-0.218-1.412-0.476-2.97-0.544-1.688-0.074-2.194-0.089-6.466-0.081-4.271 0.008-4.777 0.025-6.464 0.105-1.559 0.074-2.405 0.336-2.969 0.556-0.747 0.292-1.278 0.639-1.838 1.2-0.558 0.561-0.904 1.094-1.193 1.842-0.217 0.564-0.477 1.412-0.544 2.971-0.074 1.688-0.089 2.194-0.081 6.465s0.026 4.778 0.105 6.465c0.073 1.56 0.337 2.406 0.556 2.971 0.292 0.746 0.64 1.278 1.2 1.837 0.561 0.557 1.095 0.904 1.842 1.193z"></path>
</symbol>
<symbol id="icon-telegram" viewBox="0 0 32 32">
<path  d="M16 32c8.837 0 16-7.163 16-16s-7.163-16-16-16c-8.837 0-16 7.163-16 16s7.163 16 16 16z"></path>
<path fill="#fff" style="fill: var(--color2, #fff)" d="M7.243 15.831c4.664-2.032 7.775-3.372 9.331-4.019 4.443-1.848 5.367-2.169 5.968-2.18 0.132-0.002 0.428 0.030 0.62 0.186 0.162 0.131 0.206 0.309 0.228 0.433s0.048 0.408 0.027 0.63c-0.241 2.53-1.283 8.669-1.813 11.503-0.224 1.199-0.666 1.601-1.093 1.64-0.929 0.085-1.635-0.614-2.535-1.204-1.408-0.923-2.204-1.498-3.571-2.398-1.58-1.041-0.556-1.613 0.345-2.548 0.236-0.245 4.329-3.968 4.409-4.306 0.010-0.042 0.019-0.2-0.074-0.283s-0.232-0.055-0.331-0.032c-0.141 0.032-2.391 1.519-6.749 4.461-0.639 0.439-1.217 0.652-1.735 0.641-0.571-0.012-1.67-0.323-2.487-0.589-1.002-0.326-1.798-0.498-1.729-1.051 0.036-0.288 0.433-0.583 1.19-0.884z"></path>
</symbol>
</defs>
</svg>



